<svg xmlns="http://www.w3.org/2000/svg" xmlns:xlink="http://www.w3.org/1999/xlink" viewBox="42 23 173 53">
    <title>birkbeck-logo icon</title>
    <path fill="#552234" fill-rule="evenodd" d="M42 76h172.941356V23.103438H42"></path> 
    <path d="M207.14821 62.070607h-.092852c-.487072 0-.672778.154997-.672778.80701v4.899857h-.301365l-4.07446-4.949495h-.02085v3.64627c0 .75401.177234.933024.706008.933024h.082754v.339616h-1.972885v-.328567h.093342c.45612 0 .642804-.262118.642804-.975456v-3.32539c0-.74392-.162248-.998673-.88129-1.058078v-.3172h1.65914l3.586246 4.41133h.021178v-3.010915c0-.906924-.156385-1.07201-.643456-1.07201h-.092853V61.7422h1.961318v.328407zm-10.356704 5.818632c-1.81992 0-3.246112-1.40218-3.246112-3.170875 0-1.779103 1.41544-3.129082 3.28879-3.129082 1.788157 0 3.193008 1.381363 3.193008 3.118674 0 1.779102-1.42619 3.18128-3.235686 3.18128v.000002zm-6.134496-.40927c-.466383.17309-1.010958.26676-1.674288.26676h-2.806118v-.339616h.09497c.42517 0 .578785-.209438.578785-.871698v-3.648514c0-.66242-.176097-.816456-.601267-.816456h-.07249v-.328408h2.484716c.756833 0 1.028062.009286 1.41153.101035.238485.061167.47697.142668.70503.254593 1.005584.509664 1.695955 1.574468 1.695955 2.71581 0 1.222522-.68695 2.258984-1.816826 2.666492zm-5.398186-5.409364h-.093342c-.487234 0-.673755.154997-.673755.80701v4.899857h-.300225l-4.074948-4.949495h-.021014v3.64627c0 .75401.177235.933025.70601.933025h.082752v.339616h-1.97272v-.328568h.09334c.45612 0 .642642-.262118.642642-.975456v-3.32539c0-.74392-.16225-.998673-.881127-1.058078v-.3172h1.659138l3.587062 4.41133h.020526v-3.010914c0-.906924-.15622-1.07201-.643456-1.07201h-.093342V61.7422h1.96246v.328407zm-10.54518 5.818632c-1.819922 0-3.246276-1.40218-3.246276-3.170874 0-1.779103 1.41544-3.129082 3.288792-3.129082 1.788155 0 3.19317 1.381363 3.19317 3.118674 0 1.779102-1.426354 3.18128-3.235687 3.18128v.000002zm-4.302358-.14251h-4.448478v-.339455h.062228c.46622 0 .611364-.219846.611364-1.055357V63.08129l.01059-.26484c0-.591006-.176422-.746003-.591003-.746003h-.09318V61.7422h2.294124v.328247h-.062226c-.466546 0-.61332.1582-.61332 1.003958l.001793 3.29801v.366676c-.001792.46115.035024.545854.501407.56619l.34209.010087h.943355c.725557 0 .83405-.152756 1.10381-.998514h.367015l-.429568 1.42988v-.000005zm-10.87717-3.31482c.66349 0 .75211-.10184.814337-.652014h.322868v1.795595h-.322866c-.07249-.57051-.150846-.65121-.824764-.65121h-1.22615v1.611134c0 .66226.165832.871858.59084.871858h.082915v.339456h-2.314812v-.339455h.082753c.42517 0 .591002-.309354.591002-.971613v-3.53771c0-.66242-.154592-.827505-.579762-.827505h-.093993V61.7422h4.232636l.0518 1.19434h-.322868c-.134882-.672507-.254613-.825262-.897417-.825262h-1.423096v2.32063H159.534115zm-6.921304 3.457328c-1.81992 0-3.246275-1.40218-3.246275-3.170874 0-1.779103 1.415602-3.129082 3.288792-3.129082 1.788153 0 3.193004 1.381363 3.193004 3.118674 0 1.779102-1.42619 3.18128-3.235523 3.18128l.000002.000002zm-7.868242-5.82984c-.38526.031702-.51672.09623-.78518.380125l-.124292.193587-1.402082 2.13489v1.767415c0 .66226.176258.882906.601265.882906h.07249v.328408h-2.30357v-.328407h.11403c.456283-.00208.6011-.220647.6011-.882907V64.75695l-1.26215-1.927534c-.41458-.631837-.582856-.72919-1.059665-.77002v-.3172h2.47983v.328407h-.124456c-.300553 0-.478766.048197-.487237.206716-.003095.061005.04154.142667.103768.25475l.11403.17309.978217 1.49729.87396-1.323076c.134718-.213922.228874-.407668.228874-.539928 0-.22417-.13488-.268843-.404317-.268843V61.7422h1.785386v.3172-.000005zm-6.37282.978977l-.020687-.081342c-.176258-.57051-.39878-.75401-1.165877-.75401h-.865162V66.566c0 .641924.177072.841275.591653.841275h.093342v.339456h-2.273437v-.339454h.07249c.435433 0 .601265-.209598.601265-.871858v-4.33239h-.792673c-.829325 0-1.030344.1835-1.154637.804928h-.322868l.019222-1.295538h5.46465l.044472 1.32596h-.291755v-.000005zm-6.174567-.96793h-.072654c-.43527 0-.594587.2144-.601103.838552v3.637465c0 .66226.165832.871698.6011.871698h.072655v.328568h-2.29331v-.328567h.082917c.425006 0 .612504-.220487.612504-.882747v-3.637465c-.055223-.71462-.187498-.827505-.612505-.827505h-.082917V61.7422h2.29331v.328247-.000004zm-5.242453 5.821037c-.321403 0-.48349-.032184-.98115-.193746-.239625-.07782-.32466-.115287-.3662-.115287-.070372 0-.1124.073175-.164365.22593h-.31912l.003745-1.746117h.344046l.010262.112084c.059785.540408.140257.770342.482348 1.024934.248748.203834.52356.30455.844963.30455.715293 0 1.122054-.415354 1.122054-1.001236 0-.244664-.101975-.51591-.464917-.801245-.21747-.183338-.455306-.351945-.704054-.5047-.38363-.244665-.64932-.402064-.78404-.493813-.145143-.101837-.332804-.29014-.467523-.442894-.259173-.31592-.353166-.68948-.353492-1.09715-.00065-.947113.742336-1.574307 1.696117-1.574307.30055 0 .47681.030423.829162.142508.207535.071256.254613.083105.319773.09015.078518.008166.10393-.04163.10328-.11977-.000327-.01041-.00098-.020496-.00098-.04083h.32124v1.520506h-.327918l-.010425-.0815c-.114193-.458427-.218775-.704053-.477786-.8978-.22806-.17325-.48805-.26644-.78876-.263077-.598496.006884-.975936.45026-.95997.872177.009283.249308.12299.51655.361473.74072.144982.13242.348607.27925.535128.401422.13472.0815.326615.207836.647855.401422.47681.295584.71839.47764.94368.747605.262596.314638.396337.693644.39715 1.06048.001793.930623-.782083 1.728985-1.791575 1.728985v-.000002zm-5.32016-23.502377v6.589613c0 2.084934.34095 2.53167 1.85592 2.53167h.378744v.632798h-7.12053v-.632797h.34095c1.552765 0 1.893715-.446738 1.893715-2.53167V43.86791c0-1.824258-.378906-2.19654-2.121123-2.19654h-.530078v-.632957l5.3024-.40943v2.829496c2.575615-2.15939 3.636096-2.792348 4.620827-2.792348.719693 0 1.74238.335133 2.386162.78187l-1.022688 2.53151-.302994-.148912c-1.40127-.74456-2.083006-1.005077-2.840492-1.005077-.87119 0-1.628676.40959-2.840816 1.56358zm-4.6552 23.357788h-4.427626v-.339614h.082916c.425006 0 .59084-.209438.59084-.871698V63.08145l-.011404-.183498c0-.66226-.15443-.827345-.579436-.827345h-.082916V61.7422h4.43903l.063042 1.144383h-.312442c-.145144-.61134-.285727-.775145-.94922-.775145h-1.631444v2.41238h1.36201c.653066 0 .67962-.050918.79365-.509504.010262-.010247.010262-.030583.020687-.061166h.311466v1.571586h-.32287c-.134717-.499417-.149867-.560423-.792508-.560423h-1.372435v2.029694c0 .39726.03975.37244.599474.37244h.880964c.891553 0 1.00591-.142667 1.296197-.87618h.35675l-.314722 1.256628h-.000002zm-5.10936-5.68749c-.528775.091588-.733215.246745-1.065043 1.092343l-1.765838 4.63566h-.300227l-1.834745-4.760074c-.280026-.743763-.510693-.92614-1.018616-.956724V61.7422h2.336478v.3172c-.321402.010247-.529426.10936-.529426.323283 0 .09191.010263.086465.124293.3718l.062227.193426 1.25824 3.264862 1.227128-3.212984c.093342-.254754.155407-.444657.155407-.577237 0-.255392-.156386-.340896-.539038-.351945V61.7422h1.889153v.3172h.000005zm-6.810372.011047h-.072653c-.43527 0-.594586.214402-.601265.838553v3.637465c0 .66226.165996.871698.601265.871698h.072653v.328568h-2.29331v-.328566h.082918c.425006 0 .612504-.220486.612504-.882746v-3.637465c-.055223-.71462-.187498-.827505-.612504-.827505h-.082917V61.7422h2.29331v.328247h-.000002zm-3.379853.00016h-.093342c-.487234 0-.673755.154997-.673755.80701v4.899857h-.300388l-4.074948-4.949495h-.02085v3.64627c0 .75401.177234.933024.706008.933024h.082753v.339616H95.33238v-.328567h.093506c.455958 0 .64264-.262118.64264-.975456v-3.32539c0-.74392-.162247-.998673-.881126-1.058078v-.3172h1.65914l3.586898 4.41133h.020688v-3.010915c0-.906924-.156384-1.07201-.64362-1.07201h-.09334V61.7422h1.96262v.328407zm-7.560035-.00016h-.162737c-.291103.002082-.52242.165085-.52242.827344v3.637628c.006026.55786.097414.882746.52242.882746h.162737v.328568l-1.63682-.005603v-.694125c-.572758.562985-1.106907.801405-1.894856.801405-1.410227 0-2.12373-.91221-2.100435-2.148502V62.89779c0-.662258-.16567-.827343-.590676-.827343h-.082916v-.33129h2.30357v.33129h-.07249c-.435432 0-.601265.165085-.601265.827344v2.70028c.034535.655215.034535.895236.238486 1.1921.245654.35771.636126.535604 1.175162.535604.694607 0 1.174836-.288057 1.625418-.88787l.00603-3.356613v-.1835c-.00603-.511423-.097253-.827342-.52226-.827342h-.120383v-.328408h2.273435v.328407h-.000002zm16.108225-29.54854l.018733.005283c-.27742.391656-.440156.868015-.440156 1.381203 0 1.33685 1.102345 2.420547 2.462073 2.420547l.367503-.043713c-.448627.647528-1.204647 1.079054-2.048307 1.079054-1.350766 0-2.420532-1.106593-2.420532-2.434475 0-1.207632.88471-2.232245 2.060688-2.407898zm80.13549-1.34902l4.99957-.40975v16.604374l3.63593-3.164627c.606153-.521193.984896-1.116843.984896-1.526272 0-.707253-.454653-1.005237-1.628674-1.005237v-.632958h7.271538v.632958h-.60599c-1.47669 0-2.46142.484045-4.31718 2.12208l-2.87861 2.531672 5.60556 5.509918c1.287726 1.228607 1.96979 1.600728 3.295796 1.675345v.632957h-4.394233l-6.969033-6.589773v3.425146c0 2.196538.26504 2.494363 2.234665 2.53167v.632958h-7.08274v-.632957c1.93167-.03731 2.234665-.37228 2.234665-2.53167V33.74139c0-1.675186-.2652-1.898554-2.386162-1.898554v-.669946l.000002-.000002zm-6.24934 9.493246c.87119 0 1.931833.18606 2.916564.484205.340785.111444.64378.1859.833233.1859.34095 0 .681737-.223368.908983-.632797h.681737v4.54199h-.568196c-.53024-2.3826-2.31025-3.90919-4.544915-3.90919-2.68932 0-4.507285 2.196537-4.507285 5.47277 0 3.611205 2.272457 6.62676 5.037525 6.62676 1.855922 0 3.3331-.819017 4.961614-2.71773v.930783c-1.287726 1.786948-3.446642 2.829495-5.87076 2.829495-3.976882 0-6.741787-2.71773-6.741787-6.589453 0-4.020955 3.029942-7.22273 6.893283-7.22273l.000002-.000002zm-21.89167 7.03651c0-3.94634 2.99215-7.03635 6.779745-7.03635 3.030106 0 5.79501 2.382596 5.757055 4.988723v.446737h-9.885435c.113542 2.643275.416536 3.834574 1.401268 5.212094.984894 1.451975 2.537822 2.382597 3.977045 2.382597 1.552927 0 2.954358-.893474 4.73453-2.94094v.96793c-1.628838 2.010318-3.181603 2.75504-5.529972 2.75504-4.204126 0-7.234232-2.829495-7.234232-6.775834l-.000002.000002zm-11.43999 6.58961c-1.136392 0-2.121123-.074615-3.93909-.40959v-19.76884c-.037955-2.233684-.18929-2.382596-2.38616-2.419905v-.632796l4.961776-.37228v11.876162c1.136067-1.1913 2.840655-1.898713 4.507124-1.898713 3.484598 0 6.211547 2.829336 6.211547 6.44054 0 2.53167-1.439222 4.839975-3.825384 6.06842-1.514972.78203-3.21956 1.117005-5.52981 1.117005zm-5.832315-.148913h-4.39358l-6.969197-6.589773v3.425146c0 2.196538.26504 2.494363 2.234665 2.53167v.632958H128.7393v-.632956c1.93167-.03731 2.234665-.37228 2.234665-2.53167v-17.23733c0-1.675185-.2652-1.898553-2.386162-1.898553v-.669945l4.99957-.40975v16.604373l3.636095-3.164628c.605826-.521193.984732-1.116843.984732-1.526272 0-.707254-.454492-1.005238-1.628677-1.005238v-.632958h7.27219v.632958h-.60615c-1.47718 0-2.461748.484045-4.317833 2.12208l-2.878447 2.531672 5.60556 5.509918c1.287725 1.228607 1.969625 1.600728 3.295307 1.675345v.632957-.000002zm-20.697286 13.605153l-1.342786.009126c-.241092-.26084-.281654-.293183-.732236-1.00588-.394056-.652013-.64818-1.05952-.844964-1.2736-.08308-.10184-.23262-.22305-.356914-.30455-.196783-.122334-.300388-.136745-.6112-.136745l-.301856.011048v1.5109c0 .66242.165833.86081.601265.86081h.07249v.328408h-2.304548v-.339615h.072653c.424844 0 .601102-.242743.601102-.905003V62.91028c0-.66226-.176258-.838552-.601102-.838552h-.072653v-.328408h2.264475c.694444 0 1.128736.069012 1.481252.283094.487234.275087.835515.719903.835515 1.384245 0 .618544-.32743 1.178807-1.136067 1.402976.393893.265.422726.324405.702588.772744l.44586.71318c.49766.79484.77638 1.116682 1.184446 1.120044h.051803l-.009124.328888zM107.14688 53.510387h.681738c1.363637 0 1.856084-.484046 1.856084-1.824097v-8.22781c0-1.15415-.53024-1.675344-1.780336-1.675344h-.757486v-.632958l5.075482-.483885v10.312423c0 2.196538.265038 2.494523 2.272457 2.53167v.632958h-7.34794v-.632957zm-5.71959.148913c-1.026923.321682-2.19671.484044-3.863178.484044H88.13317v-.632957h.302832c1.552927 0 2.158916-1.90928 2.158916-4.329348V35.89021c0-2.419908-.490167-4.428944-2.158916-4.428944h-.302832v-.643846h7.726356c2.27262 0 4.00083.30375 5.24946.905323 1.936068.932704 2.866553 2.877372 2.866553 4.589864 0 1.451976-.34209 3.068236-1.839796 4.272505-.785342.631516-1.272902.903722-2.677916 1.336368v.074296c3.370892.707414 5.64335 3.12748 5.64335 5.993964 0 2.122082-1.17728 4.88769-3.673888 5.66956z" fill="#FFF" fill-rule="evenodd"></path> 
    <path d="M100.821466 36.174263c0-2.084934-.78469-3.567012-2.89881-4.162662-.818084-.230572-1.38123-.28037-2.820616-.28037h-1.628513v9.855118h2.234665c3.18144 0 5.113274-2.73166 5.113274-5.412084zm95.992684 25.764405c-1.42603 0-2.23662 1.135256-2.23662 2.727178 0 1.606012.807333 2.851912 2.180418 2.851912 1.40469 0 2.183026-1.162797 2.183026-2.75488 0-1.633552-.732563-2.82421-2.126825-2.82421zm-22.077864 0c-1.42619 0-2.23662 1.135256-2.23662 2.727178 0 1.606012.807334 2.851912 2.180257 2.851912 1.40485 0 2.183025-1.162797 2.183025-2.75488 0-1.633552-.7324-2.82421-2.126662-2.82421zM152.86547 41.671532c-1.363312 0-2.423955.59565-3.44648 1.861405v6.66407c0 2.9411.340788 3.425144 2.272458 3.425144 3.52239 0 5.60556-2.34545 5.60556-6.291786 0-3.239085-1.89388-5.65883-4.431538-5.65883v-.000002zm15.757987-.297825c-2.12096 0-3.3331 1.302903-3.673888 4.09509h7.272025c0-2.605966-1.325682-4.09509-3.59814-4.09509h.000002zm-48.041872 20.73773l-.52063.003524-.006515 2.51838.696724-.00352c.390472 0 .616414-.06325.844474-.26228.281655-.246104.4224-.55978.4224-.947433 0-.79372-.544412-1.290254-1.436453-1.308668v-.000002zm32.05387-.17277c-1.42619 0-2.23662 1.135257-2.23662 2.72718 0 1.60601.807334 2.85191 2.180256 2.85191 1.404854 0 2.183028-1.162796 2.183028-2.75488 0-1.63355-.7324-2.82421-2.126662-2.82421zm37.646722.523756c-.403178-.282934-.839588-.35947-1.638613-.35947l-.825904.00208v4.243843c0 .798523.102953 1.024934.704218 1.024934h.446672c.901978 0 1.409575-.228813 1.85527-.758813.393893-.468514.555164-.998994.555164-1.783426 0-1.080173-.41621-1.891345-1.096807-2.369146zM95.51874 42.665883h-2.045213v7.044836c0 2.86664.492448 3.574055 2.46191 3.574055h1.098437c1.817966 0 2.840653-.40959 3.71168-1.489284.643945-.819017 1.022688-1.97301 1.022688-3.201615 0-3.090012-2.423955-5.927994-6.249503-5.927994v.000002z" fill="#552234" fill-rule="evenodd"></path> 
    <path d="M66.022077 32.121442H51.816364l-.023457 14.717347c.511018 9.027774.948405 14.764103 14.227702 21.54122 13.279297-6.777117 13.71652-12.513446 14.22754-21.54122l-.02346-14.717347H66.022077zm3.740676 33.287043V61.73211h4.697553c-1.222403 1.23213-2.758715 2.45193-4.697553 3.676375zm4.786985-3.76652V56.72001h3.32007c-.704707 1.688153-1.747594 3.315942-3.32007 4.921954zm-12.273225 3.76652c-1.93884-1.224445-3.474988-2.444245-4.69739-3.676375h4.69739v3.676374zm-4.786986-3.766523c-1.572475-1.606012-2.615362-3.2338-3.319905-4.921955h3.319905V61.641963zm12.273226-4.935403h4.78552v-5.00618h-4.78552v5.00618zm-12.27176-.000002h4.78552v-5.00618h-4.78552v5.00618zm11.51851 9.153147l-3.000622 1.65421-2.977324-1.660454V46.697246h5.977948v19.162462-.000002zM79.494736 47.1664v.038108l-.002117.037788c-.087806 1.554613-.178867 3.03365-.36164 4.455042h-4.581243V46.6918H79.5006l-.005864.4746zm-22.00521 4.530936h-4.58108c-.182772-1.421392-.273996-2.90043-.3618-4.455042l-.002117-.037788v-.03811l-.00391-.474597h4.948906v5.005537zm-4.959658-5.75234h26.981484v-13.13279H52.529868v13.13279zM63.515042 35.47966c.068907-.009128.236206-.017294.61055.023376.169254.018734.291266.07798.362942.176293.08096.110962.08373.25123.077377.328566-.41474.102638-.72132.07894-.888944-.06853-.155244-.136905-.166647-.35499-.161923-.459708v.000002zm2.150283.182857c.074608-.108722.20949-.174372.40106-.195188.419468-.046277.587418-.028823.647366-.016174.006843.103118.00212.346822-.170066.499577-.177724.15708-.503036.182058-.943355.072055-.01173-.080702-.01955-.23698.064996-.360273v.000002zm-2.944095-.599813c-.155407.378366-.20493.758492-.151497 1.159115.040562.316396.179516.5593.41344.722303.457913.3188 1.126455.221447 1.39247.164924.180983-.037948.32743-.019214.434782.055882.161108.112404.18994.320882.190267.322323l.070862.587323c-.026064-.03907-.055712-.077178-.093342-.110964-.108492-.097193-.24777-.14731-.414907-.149393l-.001303-.004164-.08601.007526c-.003097.00016-.006192.00048-.009287.0008l.00456.045475-.010424-.04147c-.143187.034425-1.51611.17597-1.7098-.401905l-.01238-.55882-.182447.31992c-.00847.01457-.204114.362834-.25559.909326-.04708.502298.024272 1.27424.633192 2.100144.924785 1.254387 1.434174 1.945308 1.57557 2.984012.04154.300227.01222.5023-.090083.617266-.137812.155157-.420933.15884-.720832.154997-.103116-.001122-.206883 0-.308533.005924-.195154.01073-.351864.08182-.465732.21184-.22855.260677-.1932.66306-.191407.680194l.020036.21088.152964-.149394c.038444-.037308.244024-.057003.435106-.04195 1.211.362833 1.503406.005283 1.759322-.50022.108817-.2128.314397-.36027.513136-.502938.213562-.153236.415395-.297985.50548-.519112.077702-.191184-.151172-.34362-.35317-.47796-.083404-.055563-.16974-.113046-.202647-.153076-.000488-.00048-.000977-.00112-.001466-.001762.01189-.002882.035023.002562.06793.01425.126246.045796.251842.021137.33655-.06597.07982-.08182.104907-.203352.062065-.303428-.064835-.14683-.225454-.336414-.336878-.427362-.028345-.023218-.052943-.069973-.061902-.101517.014824.002882.036653.008807.067115.021136.203298.082303.35447.087587.462472.016974.08194-.05396.121524-.139305.140583-.233456.109958.18622.26178.538967.377277 1.174167.09823.54169.151334.879383.0606.998834-.06793.089347-.259664.110323-.57732.14523l-.04659.005123c-.26634.028982-.459866.1313-.575362.30423-.200693.300547-.07917.698127-.073957.71494l.10784.343298.088292-.348902c.023946-.094792.145144-.165886.253147-.15708.056363.006726.106374.009127.168113.01169.11794.005283.2797.01249.628143.059885.32189.043713.616903-.006726.92902-.059565.215517-.036348.4382-.074297.68027-.081982.308534-.009287.544576.030583.700146.057323.166484.02834.310325.053.340136-.083743.034697-.17085.004887-.31944-.08878-.441453-.15264-.19919-.467525-.315438-.962904-.35547-.240278-.018413-.3965-.127615-.421586-.220965-.012706-.047397.011077-.09143.069884-.13034.170068-.110323.270415-.194066.280515-.295903.008957-.089348-.056203-.152435-.08357-.178855-.040237-.03939-.081776-.07782-.121687-.114326-.076563-.070454-.192222-.176774-.202322-.202073.007658-.016172.01336-.023538.01352-.02546.007333.00032.02248.003203.03307.005445.05962.011688.183915.037147.273184-.110324.105886-.17069-.01743-.373082-.135695-.509825.236204-.018894.37304.016813.460517.274927.040074.11753.07021.21072.09611.29062.067442.208157.108167.333692.216333.55882.18196.373724.365712.35723.76384.286298.679457-.121852 1.17337-.123614 1.178257-.123614l.144818-.00016-.049033-.13386c-.657302-1.792713-.870213-1.82778-.95036-1.84091-.028018-.004963-.052616-.00096-.072653.007366-2.70903.322163-3.685293-1.340852-3.838745-1.64252l.069233-.123773c1.68341 1.424916 3.537376 1.079055 3.61671 1.063043l.106535-.020816-.028344-.103277c-.703403-2.560493-1.489397-2.931493-1.91147-3.130683-.058808-.0277-.10947-.05156-.146937-.076217l-.093505-.061487-.052943.097354c-.310325.57099-1.30418.430084-1.678198.376764-.044636-.006245-.08031-.011208-.105723-.01377-.21063-.018895-.38314.029622-.512158.14523-.040564.036507-.072003.077498-.09937.11945l.07705-.59533c.000164-.00208.028835-.21056.189943-.323124.10686-.074456.252657-.09351.433313-.055562.26618.056523.935047.153876 1.39247-.164764.23409-.162843.373368-.405746.414256-.722305.051802-.399824.000814-.789558-.15166-1.159437.16567-.13146.55158-.51751.446672-1.194182l-.018897-.12153-.117126.04275c-.006843.002404-.660724.241144-1.042074.403026-.147586-.060205-.655672-.231855-1.64806-.231855-.99304 0-1.501777.17149-1.649527.231696-.37793-.161402-1.012914-.392776-1.04077-.402864l-.117126-.042752-.018733.121372c-.105233.67683.28035 1.063043.445696 1.194502h.000004zm3.460396 31.542894c-.039835 0-.072273-.006766-.11097-.007894-.038697.001128-.071704.007894-.11097.007894h.22194zm-1.165296-3.93806c0 .050598.011404.192785.177236.216803-.01466.457308-.04268 1.658534.034046 2.50045h-.282306s-.02916 1.188737 1.046145 1.212915c1.075306-.024178 1.046147-1.212915 1.046147-1.212915h-.291754c.076563-.841917.048707-2.043143.034046-2.50045.16567-.024017.177234-.166204.177234-.216802v-.285656h.008634l1.34686-.309834v-.90148l-.830955.25363-.563798.031705V51.39583s-.065974-1.914564-.369946-3.16655c-.153127.774505-.337693 1.784548-.337693 3.184644v10.08169l-.218612.01233-.386725-.022418V51.39583c.055874-1.9634.540176-3.5265.800165-3.917356-.118592-.338815-.147588-.31944-.318633-.31944-.389332 0-.958505 3.45973-.958505 4.236797v10.062156l-.583834-.033786-.830954-.253632v.90148l1.3032.299747v.295743zm8.752302-22.123898c.539688.309834.615437.666744.58416.911568-.044472.346342-.340136.680994-.687602.778508l-.028833.008006-.01971.022097c-.010427.011526-.25266.286614-.216495.607816l.0101.089028h3.1039l.0101-.089028c.036163-.321202-.205906-.59629-.21617-.607658l-.019873-.022258-.028835-.008006c-.347955-.097674-.643782-.432647-.688254-.779148-.031275-.244505.0448-.601254.584487-.910928 1.202204-.6882 1.006886-1.27072.997927-1.295217l-.02411-.06629h-1.405502c-.603057 0-.66056-.20143-.66105-.20143-.000162 0-.000162.00016-.000162.00016l-.01466-.1337c.073142-.06485.19206-.221608.426147-.575315.485442-.731112-.52682-2.367227-.57015-2.43656l-.21568-.34506.027367.404146c.039584.58268-.37353 1.279206-.372064 1.279046-.548485.656816.300387 1.467027.50271 1.64444l-.002444.032666.029322.010568-.012217.114967c-.000487.002082-.053593.206076-.662025.206076H72.79514l-.024272.06629c-.00896.024338-.20509.607018.997764 1.295217zm-17.88302 0c.539526.309834.615437.666744.583997.911568-.044473.346342-.340137.680994-.687603.778508l-.028834.008006-.01971.022257c-.010426.011366-.252496.286454-.216495.607657l.0101.089027h3.104062l.0101-.089027c.036-.321203-.20607-.59629-.216332-.60766l-.019874-.022256-.02867-.008005c-.348118-.097674-.643945-.432646-.688416-.779148-.031277-.244505.044797-.601254.584486-.910927 1.202203-.6882 1.006886-1.270718.99809-1.295217l-.02411-.06629H57.84074c-.603056 0-.66056-.201432-.661212-.201432l-.01466-.13354c.07314-.06485.191896-.221606.426146-.575313.485606-.731112-.526656-2.367227-.569988-2.43656l-.215842-.3449.02753.403986c.039585.58268-.373693 1.279205-.372227 1.279045-.548322.656816.300388 1.467027.50271 1.64444l-.002444.032666.029322.010568-.012217.114967c-.00049.00208-.053594.206075-.661864.206075h-1.404036l-.024272.06629c-.00896.024338-.205092.607018.997926 1.295217v-.000002zm25.904714 6.312124l-.002444.043073c-.510855 9.045066-.88129 15.5804-15.105246 22.824266l-.66056.335613v.00144l-.001466-.00064-.00163.00064v-.00144l-.66056-.335613c-14.223954-7.243867-14.59439-13.7792-15.105244-22.824266l-.002443-.043073v-.043392l.02525-16.226807h31.489094l.02525 16.226807v.043392z" fill="#FFF" fill-rule="evenodd"></path>
</svg>
